<svg width="35" height="35" viewBox="0 0 35 35" fill="none" xmlns="http://www.w3.org/2000/svg">
<path fill-rule="evenodd" clip-rule="evenodd" d="M17.5 35C27.165 35 35 27.165 35 17.5C35 7.83502 27.165 0 17.5 0C7.83502 0 0 7.83502 0 17.5C0 27.165 7.83502 35 17.5 35Z" fill="#F5F5F8"/>
<mask id="mask0" mask-type="alpha" maskUnits="userSpaceOnUse" x="0" y="0" width="35" height="35">
<path fill-rule="evenodd" clip-rule="evenodd" d="M17.5 35C27.165 35 35 27.165 35 17.5C35 7.83502 27.165 0 17.5 0C7.83502 0 0 7.83502 0 17.5C0 27.165 7.83502 35 17.5 35Z" fill="white"/>
</mask>
<g mask="url(#mask0)">
<path fill-rule="evenodd" clip-rule="evenodd" d="M30.2325 30.9395C29.2008 29.4471 27.6798 28.3623 25.9327 27.8729L21.8749 26.7361V23.8196C23.5903 22.531 24.7168 20.5032 24.786 18.2095C25.0258 18.3151 25.2904 18.375 25.5695 18.375C26.6433 18.375 27.5139 17.5045 27.5139 16.4306C27.5139 15.3567 26.6433 14.4861 25.5695 14.4861C25.2927 14.4861 25.03 14.5448 24.7917 14.649V14.0972C24.7917 10.0701 21.5271 6.80558 17.5 6.80558H17.4999C13.4729 6.80558 10.2083 10.0701 10.2083 14.0972V14.649C9.96996 14.5448 9.70726 14.4861 9.43057 14.4861C8.35665 14.4861 7.48612 15.3567 7.48612 16.4306C7.48612 17.5045 8.35665 18.375 9.43057 18.375C9.7095 18.375 9.97414 18.3152 10.214 18.2095C10.2831 20.5032 11.4096 22.531 13.1249 23.8196V26.7361L9.06725 27.8729C7.32017 28.3623 5.79912 29.4471 4.7674 30.9395L1.94446 35.0234V37.9167H33.0556V35.0234L30.2325 30.9395Z" fill="#FFCF83"/>
<path fill-rule="evenodd" clip-rule="evenodd" d="M17.4999 25.2778C16.6008 25.2778 15.7402 25.114 14.9449 24.8164C16.076 25.539 17.4193 25.9583 18.8611 25.9583C19.9363 25.9583 20.9561 25.7237 21.8749 25.306V23.8195C20.6563 24.735 19.1415 25.2778 17.4999 25.2778Z" fill="#F7A74F"/>
<path d="M10.462 16.7143C10.4868 16.624 10.5001 16.5288 10.5001 16.4306C10.5001 15.84 10.0213 15.3612 9.43065 15.3612C9.28297 15.3612 9.14229 15.3911 9.01434 15.4452" stroke="#00004D" stroke-width="0.555556" stroke-linecap="round" stroke-linejoin="round"/>
<path d="M24.5381 16.7143C24.5133 16.624 24.5001 16.5288 24.5001 16.4306C24.5001 15.84 24.9789 15.3612 25.5695 15.3612C25.7171 15.3612 25.8578 15.3911 25.9858 15.4452" stroke="#00004D" stroke-width="0.555556" stroke-linecap="round" stroke-linejoin="round"/>
<path fill-rule="evenodd" clip-rule="evenodd" d="M19.4444 20.8064C19.4444 21.8803 18.5739 22.7509 17.5 22.7509C16.4261 22.7509 15.5555 21.8803 15.5555 20.8064H19.4444Z" fill="white"/>
<path fill-rule="evenodd" clip-rule="evenodd" d="M21.4862 16.7222C21.4862 17.1517 21.1379 17.5 20.7084 17.5C20.2789 17.5 19.9306 17.1517 19.9306 16.7222C19.9306 16.2927 20.2789 15.9444 20.7084 15.9444C21.1379 15.9444 21.4862 16.2927 21.4862 16.7222Z" fill="#00004D"/>
<path fill-rule="evenodd" clip-rule="evenodd" d="M15.0695 16.7222C15.0695 17.1517 14.7212 17.5 14.2917 17.5C13.8622 17.5 13.5139 17.1517 13.5139 16.7222C13.5139 16.2927 13.8622 15.9444 14.2917 15.9444C14.7212 15.9444 15.0695 16.2927 15.0695 16.7222Z" fill="#00004D"/>
<path d="M17.5 15.9444L18.4722 19.25L17.1111 19.4444" stroke="#00004D" stroke-width="0.555556" stroke-linecap="round" stroke-linejoin="round"/>
<path fill-rule="evenodd" clip-rule="evenodd" d="M25.2778 14.5103V14.0972C25.2778 12.6052 24.8569 11.2119 24.1286 10.028C23.4536 8.93082 22.5135 8.01538 21.3981 7.36788C20.2518 6.7023 18.9209 6.31944 17.5 6.31944C16.079 6.31944 14.7482 6.7023 13.6019 7.36788C12.4865 8.01538 11.5464 8.93082 10.8714 10.028C10.1431 11.2119 9.72223 12.6052 9.72223 14.0972V14.5103C10.1278 14.5716 10.4921 14.7568 10.775 15.0278C11.6708 14.1287 12.3921 13.056 12.8829 11.8633C14.2565 12.606 15.829 13.0278 17.5 13.0278C19.1711 13.0278 20.7435 12.606 22.1171 11.8633C22.6078 13.056 23.3294 14.1287 24.2251 15.0278C24.5079 14.7568 24.8722 14.5716 25.2778 14.5103Z" fill="#00004D"/>
<path fill-rule="evenodd" clip-rule="evenodd" d="M33.0555 35.0233L30.2325 30.9395C29.2008 29.4472 27.6798 28.3623 25.9326 27.8728L21.875 26.7361C21.875 29.1524 19.9162 31.1111 17.5 31.1111C15.0837 31.1111 13.125 29.1524 13.125 26.7361L9.06719 27.8728C7.32011 28.3623 5.79906 29.4472 4.76734 30.9395L1.9444 35.0233V37.9167H33.0555V35.0233Z" fill="#FB344F"/>
</g>
</svg>
