<svg width="16" height="16" viewBox="0 0 16 16" fill="none" xmlns="http://www.w3.org/2000/svg">
<path d="M8.00008 1.33333C11.6761 1.33333 14.6667 4.324 14.6667 8C14.6667 11.676 11.6761 14.6667 8.00008 14.6667C4.32408 14.6667 1.33341 11.676 1.33341 8C1.33341 4.324 4.32408 1.33333 8.00008 1.33333ZM8.00008 13.3333C10.9407 13.3333 13.3334 10.9407 13.3334 8C13.3334 5.05933 10.9407 2.66666 8.00008 2.66666C5.05941 2.66666 2.66675 5.05933 2.66675 8C2.66675 10.9407 5.05941 13.3333 8.00008 13.3333Z" fill="#FF6B72"/>
<path d="M7.33341 4.66667H8.66675V8.27601L6.47141 10.4713L5.52875 9.52867L7.33341 7.72401V4.66667Z" fill="#FF6B72"/>
</svg>
