<svg width="24" height="17" viewBox="0 0 24 17" fill="none" xmlns="http://www.w3.org/2000/svg">
<path d="M20.16 7.2975C20.3137 6.89625 20.4 6.4575 20.4 6C20.4 4.0125 18.7875 2.4 16.8 2.4C16.0613 2.4 15.3713 2.625 14.8013 3.0075C13.7625 1.2075 11.8238 0 9.6 0C6.285 0 3.6 2.685 3.6 6C3.6 6.10125 3.60375 6.2025 3.6075 6.30375C1.5075 7.0425 0 9.045 0 11.4C0 14.3812 2.41875 16.8 5.4 16.8H19.2C21.8513 16.8 24 14.6512 24 12C24 9.67875 22.35 7.74 20.16 7.2975ZM14.7525 9.6H12.3V13.8C12.3 14.13 12.03 14.4 11.7 14.4H9.9C9.57 14.4 9.3 14.13 9.3 13.8V9.6H6.8475C6.31125 9.6 6.045 8.955 6.42375 8.57625L10.3763 4.62375C10.6088 4.39125 10.9913 4.39125 11.2238 4.62375L15.1763 8.57625C15.555 8.955 15.285 9.6 14.7525 9.6Z" fill="#0D084D"/>
</svg>
